<?xml version="1.0" encoding="iso-8859-1"?>
<!-- Generator: Adobe Illustrator 19.0.0, SVG Export Plug-In . SVG Version: 6.00 Build 0)  -->
<svg version="1.1" id="Layer_1" xmlns="http://www.w3.org/2000/svg" xmlns:xlink="http://www.w3.org/1999/xlink" x="0px" y="0px"
	 viewBox="0 0 496 496" style="enable-background:new 0 0 496 496;" xml:space="preserve">
<g>
	<g>
		<g>
			<path d="M383.832,407.968h-53.576l-21.984-14.656L240.848,369.4c-6.416-2.256-13.312-1.8-19.368,1.28
				c-6.072,3.08-10.504,8.368-12.472,14.872c-3.424,11.28,1.648,23.48,12.056,28.992l17.312,9.2l-25.184,0.08l-10.344-25.888
				c-3.4-8.496-11.504-13.976-20.656-13.976c-7.144,0-13.896,3.464-18.064,9.264c-4.168,5.808-5.296,13.312-3.016,20.088
				l2.416,7.176l-17.552-9.592c-5.584-3.04-12.248-3.64-18.28-1.624c-6.048,2.024-11.016,6.504-13.648,12.312
				c-5.136,11.344-0.416,24.552,10.76,30.064l39.488,19.488l81.968,16.672l106.36,0.16l31.208-6.24V496H496V392H383.832V407.968z
				 M177.12,402.568c2.696-3.752,9.16-2.944,10.864,1.32l7.992,19.992l-14.416,0.048l-5.296-15.72
				C175.616,406.28,175.928,404.224,177.12,402.568z M399.832,408H416v56h16v-56h48v72h-80.168V408z M383.84,465.408l-32.8,6.56
				H248.616l-78.184-15.64l-38.544-19.016c-3.384-1.672-4.824-5.68-3.256-9.12c0.808-1.792,2.28-3.12,4.144-3.736
				c1.848-0.632,3.832-0.448,5.536,0.496l27.48,15.016h75.936l31.56-15.784l-44.72-23.776c-3.664-1.944-5.456-6.24-4.24-10.216
				c0.696-2.296,2.256-4.168,4.4-5.248c2.136-1.088,4.56-1.24,6.832-0.456l64.68,22.696l25.176,16.784h58.424V465.408z"/>
			<path d="M56,256.72V224h112v32.72c-22.664,3.824-40,23.536-40,47.28c0,26.472,21.528,48,48,48s48-21.528,48-48
				c0-23.736-17.336-43.448-40-47.28V224h128v32.72c-22.664,3.824-40,23.536-40,47.28c0,26.472,21.528,48,48,48s48-21.528,48-48
				c0-23.736-17.336-43.448-40-47.28V224h112v32.72c-22.664,3.824-40,23.536-40,47.28c0,26.472,21.528,48,48,48s48-21.528,48-48
				c0-23.736-17.336-43.448-40-47.28V208h-64V80h-72v16h56v112H256v-48h8c22.056,0,40-17.944,40-40c0-22.056-17.944-40-40-40h-32
				c-13.232,0-24-10.768-24-24s10.768-24,24-24h32c13.232,0,24,10.768,24,24h16c0-22.056-17.944-40-40-40h-8V0h-16v16h-8
				c-22.056,0-40,17.944-40,40c0,22.056,17.944,40,40,40h32c13.232,0,24,10.768,24,24s-10.768,24-24,24h-32
				c-13.232,0-24-10.768-24-24h-16c0,22.056,17.944,40,40,40h8v48H120V96h56V80h-72v128H40v48.72C17.336,260.552,0,280.264,0,304
				c0,26.472,21.528,48,48,48s48-21.528,48-48C96,280.264,78.664,260.552,56,256.72z M480,304c0,17.648-14.352,32-32,32
				s-32-14.352-32-32s14.352-32,32-32S480,286.352,480,304z M352,304c0,17.648-14.352,32-32,32s-32-14.352-32-32s14.352-32,32-32
				S352,286.352,352,304z M208,304c0,17.648-14.352,32-32,32s-32-14.352-32-32s14.352-32,32-32S208,286.352,208,304z M48,336
				c-17.648,0-32-14.352-32-32s14.352-32,32-32s32,14.352,32,32S65.648,336,48,336z"/>
			<rect x="40" y="296" width="16" height="16"/>
			<rect x="168" y="296" width="16" height="16"/>
			<rect x="312" y="296" width="16" height="16"/>
			<rect x="440" y="296" width="16" height="16"/>
		</g>
	</g>
</g>
<g>
</g>
<g>
</g>
<g>
</g>
<g>
</g>
<g>
</g>
<g>
</g>
<g>
</g>
<g>
</g>
<g>
</g>
<g>
</g>
<g>
</g>
<g>
</g>
<g>
</g>
<g>
</g>
<g>
</g>
</svg>
